<svg version="1.1" xmlns="http://www.w3.org/2000/svg" xmlns:xlink="http://www.w3.org/1999/xlink" width="186" height="48.47538" viewBox="0,0,186,48.47538"><g transform="translate(-82.33333,-94)"><g data-paper-data="{&quot;isPaintingLayer&quot;:true}" fill-rule="nonzero" stroke-linejoin="miter" stroke-miterlimit="10" stroke-dasharray="" stroke-dashoffset="0" style="mix-blend-mode: normal"><path d="M83.33333,141.2266v-46.2266h184v46.2266z" fill="#9966ff" stroke="#000000" stroke-width="2" stroke-linecap="butt"/><path d="M121,140.7422l-12,-25l-15.33333,24.33334z" fill="#00ff0f" stroke="#000000" stroke-width="2" stroke-linecap="round"/><path d="M152.66667,141.40887l-12,-19.66666l-15.66667,18.66666z" fill="#00ff0f" stroke="#000000" stroke-width="2" stroke-linecap="round"/><path d="M263,106.57554c0,4.69442 -3.95481,8.5 -8.83333,8.5c-4.87851,0 -8.83334,-3.80558 -8.83334,-8.5c0,-4.69442 3.95482,-8.5 8.83334,-8.5c4.87852,0 8.83333,3.80558 8.83333,8.5z" fill="#ff5300" stroke="#000000" stroke-width="0.5" stroke-linecap="butt"/><path d="M92.66667,125.22221v-23.66667h127v23.66667z" fill="#00ffb3" stroke="#ffffff" stroke-width="0.5" stroke-linecap="butt"/><text transform="translate(94.33333,119.55554) scale(0.5,0.5)" font-size="40" xml:space="preserve" fill="#0086ff" fill-rule="nonzero" stroke="none" stroke-width="1" stroke-linecap="butt" stroke-linejoin="miter" stroke-miterlimit="10" stroke-dasharray="" stroke-dashoffset="0" font-family="Serif" font-weight="normal" text-anchor="start" style="mix-blend-mode: normal"><tspan x="0" dy="0">ワードパース</tspan></text><text transform="translate(84,137.09655) scale(0.27487,0.27487)" font-size="40" xml:space="preserve" fill="#ffffff" fill-rule="nonzero" stroke="none" stroke-width="1" stroke-linecap="butt" stroke-linejoin="miter" stroke-miterlimit="10" stroke-dasharray="" stroke-dashoffset="0" font-family="Serif" font-weight="normal" text-anchor="start" style="mix-blend-mode: normal"><tspan x="0" dy="0">wordpersswordperss.wordpress.com</tspan></text></g></g></svg>